<?xml version="1.0" encoding="iso-8859-1"?>
<!-- Generator: Adobe Illustrator 25.2.1, SVG Export Plug-In . SVG Version: 6.00 Build 0)  -->
<svg version="1.1" xmlns="http://www.w3.org/2000/svg" xmlns:xlink="http://www.w3.org/1999/xlink" x="0px" y="0px"
	 viewBox="0 0 1024 1024" style="enable-background:new 0 0 1024 1024;" xml:space="preserve">
<g id="shapes" style="display:none;">
	<g>
		<g style="display:inline;">
			<path style="fill:none;stroke:#000000;stroke-width:12;stroke-miterlimit:10;" d="M292.847,205.444
				c0-18.994-15.541-34.535-34.535-34.535h0c-18.994,0-34.535,15.541-34.535,34.535"/>
			<g>
				<path d="M256.307,311.659c-2.321-1.884-5.963-4.484-11.023-7.098c-8.553-4.419-23.038-9.739-43.47-9.985l-1.976-0.024v-96.548
					l2.088,0.092c8.551,0.376,37.37,3.038,56.387,21.416c19.016-18.378,47.835-21.04,56.386-21.416l2.088-0.092v96.548l-1.976,0.024
					c-20.432,0.246-34.917,5.566-43.47,9.985c-5.059,2.614-8.701,5.214-11.023,7.098v3.075l-1.811-1.362l-2.2,2.23V311.659z"/>
				<path style="fill:#FFFFFF;" d="M314.786,200.093v92.482c-20.773,0.25-35.554,5.657-44.364,10.209
					c-5.753,2.973-9.743,5.938-12.105,7.934v0.009c-0.002-0.001-0.004-0.003-0.005-0.004c-0.002,0.001-0.004,0.003-0.005,0.004
					v-0.009c-2.362-1.996-6.352-4.961-12.105-7.934c-8.81-4.552-23.591-9.958-44.364-10.209v-92.482
					c7.101,0.312,37.721,2.787,56.474,22.248C277.066,202.88,307.685,200.405,314.786,200.093 M318.786,195.913l-4.176,0.184
					c-8.527,0.375-36.794,2.982-56.299,20.675c-19.505-17.692-47.772-20.3-56.299-20.675l-4.176-0.184v4.18v92.482v3.952
					l3.952,0.048c20.04,0.242,34.214,5.442,42.576,9.763c4.405,2.276,7.693,4.533,9.941,6.286v6.981l4.003-3.54l4.007,3.549v-6.99
					c2.248-1.753,5.537-4.01,9.941-6.286c8.362-4.32,22.536-9.521,42.576-9.763l3.952-0.048v-3.952v-92.482V195.913L318.786,195.913
					z"/>
			</g>
			<polygon style="fill:#FFFFFF;" points="283.69,325.161 232.934,325.161 232.934,247.961 258.312,262.752 283.69,247.961 			"/>
		</g>
		<g style="display:inline;">
			<path d="M327.377,292.809v-92.716h67.973v20.851h-44.064v14.457h43.091v20.85h-43.091v15.707h44.064v20.851H327.377z"/>
			<path d="M472.355,292.809l-39.199-53.656v53.656h-23.909v-92.716h24.604l37.531,51.015v-51.015h24.048v92.716H472.355z"/>
			<path d="M532.818,292.809v-71.865h-25.993v-20.851h75.757v20.851h-25.855v71.865H532.818z"/>
			<path d="M581.467,268.067v-17.932h33.362v17.932H581.467z"/>
			<path d="M648.048,292.809v-71.865h-25.993v-20.851h75.757v20.851h-25.855v71.865H648.048z"/>
			<path d="M709.207,292.809v-92.716h23.909v92.716H709.207z"/>
			<path d="M808.593,292.809l-20.155-31.137l-20.156,31.137h-28.218l32.249-47.54l-30.165-45.176h28.219l18.071,29.053
				l17.932-29.053h28.357l-30.164,45.038l32.248,47.678H808.593z"/>
		</g>
	</g>
	<g style="display:inline;">
		<g>
			<path style="fill:none;stroke:#000000;stroke-width:16;stroke-miterlimit:10;" d="M328.412,452.261
				c0-26.417-21.614-48.031-48.031-48.031h0c-26.417,0-48.031,21.614-48.031,48.031"/>
			<g>
				<path d="M280.233,601.354l-1.852,1.475l-0.006-3.217c-3.241-2.66-8.444-6.418-15.755-10.196
					c-11.971-6.185-32.238-13.63-60.807-13.975l-1.976-0.024V442.729l2.088,0.092c8.477,0.373,51.481,3.569,78.456,30.097
					c26.975-26.528,69.979-29.725,78.456-30.097l2.088-0.092v132.688l-1.976,0.024c-28.569,0.345-48.835,7.79-60.806,13.975
					c-7.307,3.776-12.511,7.534-15.754,10.195v3.891L280.233,601.354z"/>
				<path style="fill:#FFFFFF;" d="M358.925,444.819v128.622c-28.89,0.348-49.447,7.867-61.701,14.198
					c-8.002,4.134-13.55,8.259-16.836,11.035v0.012c-0.002-0.002-0.005-0.004-0.007-0.006c-0.002,0.002-0.005,0.004-0.007,0.006
					v-0.012c-3.285-2.776-8.834-6.9-16.835-11.035c-12.253-6.331-32.81-13.85-61.701-14.198V444.819
					c9.877,0.434,52.461,3.876,78.544,30.942C306.463,448.695,349.048,445.253,358.925,444.819 M362.925,440.64l-4.176,0.184
					c-5.077,0.223-18.563,1.219-34.111,5.632c-18.116,5.142-32.982,13.103-44.257,23.688
					c-11.274-10.585-26.141-18.546-44.257-23.688c-15.548-4.413-29.035-5.409-34.111-5.632l-4.176-0.184v4.18v128.622v3.952
					l3.952,0.048c28.177,0.34,48.133,7.666,59.913,13.752c6.629,3.425,11.479,6.827,14.672,9.373v6.758l3.988-3.383l4.027,3.466
					v-6.841c3.193-2.546,8.043-5.948,14.672-9.373c11.779-6.086,31.736-13.412,59.913-13.752l3.952-0.048v-3.952V444.819V440.64
					L362.925,440.64z"/>
			</g>
			<polygon style="fill:#FFFFFF;" points="315.676,618.761 245.085,618.761 245.085,511.394 280.381,531.965 315.676,511.394 			"/>
		</g>
		<g>
			<path d="M373.811,573.143V481.8h66.966v20.542h-43.411v14.243h42.453v20.541h-42.453v15.475h43.411v20.542H373.811z"/>
			<path d="M516.642,573.143l-38.619-52.861v52.861h-23.555V481.8h24.239l36.975,50.259V481.8h23.692v91.343H516.642z"/>
			<path d="M576.209,573.143v-70.801h-25.608V481.8h74.635v20.542h-25.472v70.801H576.209z"/>
			<path d="M609.095,548.767v-17.666h32.867v17.666H609.095z"/>
			<path d="M650.844,573.143v-70.801h-25.608V481.8h74.635v20.542h-25.472v70.801H650.844z"/>
			<path d="M711.097,573.143V481.8h23.555v91.343H711.097z"/>
			<path d="M809.011,573.143l-19.856-30.676l-19.858,30.676h-27.8l31.772-46.836L743.551,481.8h27.801l17.803,28.622l17.666-28.622
				h27.937l-29.717,44.371l31.77,46.972H809.011z"/>
		</g>
	</g>
	<g style="display:inline;">
		<g>
			<path style="fill:none;stroke:#000000;stroke-width:16;stroke-miterlimit:10;" d="M341.638,751.642
				c0-29.177-23.872-53.05-53.05-53.05h0c-29.177,0-53.05,23.872-53.05,53.05"/>
			<g>
				<path d="M288.584,915.92l-2.004,1.596v-3.225c-3.585-2.949-9.37-7.14-17.513-11.348c-13.243-6.842-35.661-15.077-67.254-15.458
					l-1.976-0.024V741.333l2.088,0.092c9.365,0.411,56.935,3.945,86.663,33.327c29.728-29.381,77.298-32.915,86.663-33.327
					l2.088-0.092v146.128l-1.976,0.024c-31.593,0.381-54.011,8.616-67.254,15.459c-8.143,4.207-13.928,8.397-17.513,11.347v3.239
					L288.584,915.92z"/>
				<path style="fill:#FFFFFF;" d="M375.339,743.423v142.062c-31.909,0.385-54.614,8.689-68.148,15.682
					c-8.838,4.566-14.966,9.122-18.595,12.188v0.014c-0.003-0.002-0.005-0.005-0.008-0.007c-0.003,0.002-0.006,0.005-0.008,0.007
					v-0.014c-3.629-3.066-9.757-7.621-18.595-12.188c-13.534-6.992-36.239-15.297-68.148-15.682V743.423
					c10.908,0.479,57.943,4.281,86.751,34.175C317.396,747.704,364.43,743.902,375.339,743.423 M379.339,739.243l-4.176,0.184
					c-5.593,0.246-20.45,1.343-37.58,6.205c-20.097,5.705-36.558,14.556-48.995,26.336c-12.437-11.78-28.898-20.631-48.995-26.336
					c-17.13-4.863-31.987-5.959-37.58-6.205l-4.176-0.184v4.18v142.062v3.952l3.952,0.048c31.203,0.376,53.31,8.493,66.36,15.236
					c7.46,3.854,12.89,7.684,16.431,10.522v6.877l4.005-3.466l4.011,3.48v-6.89c3.54-2.838,8.971-6.668,16.431-10.523
					c13.05-6.743,35.157-14.859,66.36-15.235l3.952-0.048v-3.952V743.423V739.243L379.339,739.243z"/>
			</g>
			<polygon style="fill:#FFFFFF;" points="327.572,935.54 249.605,935.54 249.605,816.954 288.588,839.674 327.572,816.954 			"/>
		</g>
		<g>
			<path d="M388.395,841.827c0-24.014,18.011-43.397,43.912-43.397c24.529,0,42.368,18.009,42.368,46.142v6.003h-59.006
				c1.888,7.377,8.748,13.551,20.755,13.551c5.832,0,15.438-2.573,20.241-7.033l11.492,17.324
				c-8.233,7.377-21.956,10.978-34.649,10.978C407.949,885.396,388.395,868.758,388.395,841.827z M432.307,819.699
				c-11.492,0-15.952,6.862-16.981,12.865h34.134C448.774,826.733,444.485,819.699,432.307,819.699z"/>
			<path d="M543.798,883.337v-47.857c0-10.122-5.317-13.723-13.551-13.723c-7.89,0-13.036,4.288-16.124,8.061v53.518h-26.416
				v-82.849h26.416v10.12c4.975-5.831,14.752-12.178,28.817-12.178c18.697,0,27.273,10.978,27.273,26.244v58.663H543.798z"/>
			<path d="M594.91,861.038v-37.737h-13.722v-22.812h13.722v-22.643h26.416v22.643h16.81v22.812h-16.81v30.363
				c0,4.801,2.745,8.405,7.205,8.405c2.916,0,5.831-1.03,6.69-2.058l5.146,19.898c-3.259,3.086-9.777,5.488-19.554,5.488
				C604.001,885.396,594.91,876.991,594.91,861.038z"/>
			<path d="M656.657,861.038v-37.737h-13.722v-22.812h13.722v-22.643h26.416v22.643h16.81v22.812h-16.81v30.363
				c0,4.801,2.745,8.405,7.205,8.405c2.916,0,5.831-1.03,6.69-2.058l5.146,19.898c-3.259,3.086-9.777,5.488-19.554,5.488
				C665.748,885.396,656.657,876.991,656.657,861.038z"/>
			<path d="M711.029,777.846c0-8.405,6.69-15.094,15.094-15.094c8.406,0,15.266,6.69,15.266,15.094s-6.86,15.266-15.266,15.266
				C717.719,793.112,711.029,786.25,711.029,777.846z M712.915,883.337v-82.849h26.416v82.849H712.915z"/>
			<path d="M808.798,883.337l-15.78-25.044l-16.295,25.044h-28.818l28.302-42.54l-26.588-40.308h28.989l14.237,22.471l14.065-22.471
				h28.989l-26.416,40.308l28.302,42.54H808.798z"/>
		</g>
	</g>
	<g style="display:inline;">
		<g>
			<path d="M423.591,285.324c-12.69,0-22.671-3.698-29.944-11.096c-7.273-7.394-10.91-17.561-10.91-30.495
				c0-8.343,1.647-15.644,4.942-21.901c3.295-6.256,7.94-11.129,13.934-14.617c5.995-3.487,13.057-5.231,21.191-5.231
				c7.642,0,14.407,1.585,20.296,4.757c5.889,3.174,10.498,7.826,13.829,13.961c3.329,6.135,4.996,13.635,4.996,22.505v6.415
				h-53.842v0.683c0,4.943,1.428,8.922,4.284,11.936c2.858,3.015,6.758,4.522,11.7,4.522c3.365,0,6.292-0.71,8.781-2.131
				c2.489-1.419,4.224-3.461,5.205-6.125l23.609,0.683c-1.471,7.924-5.538,14.259-12.199,19.009
				C442.8,282.949,434.177,285.324,423.591,285.324z M408.081,234.688h29.917c-0.034-4.135-1.428-7.526-4.179-10.174
				c-2.753-2.646-6.25-3.969-10.491-3.969c-4.276,0-7.844,1.348-10.7,4.049C409.771,227.292,408.254,230.657,408.081,234.688z"/>
			<path d="M500.832,237.737v46.061h-25.713v-80.764h24.449v14.828h0.895c1.788-4.907,4.837-8.781,9.149-11.62
				c4.311-2.84,9.446-4.258,15.405-4.258c5.679,0,10.613,1.262,14.801,3.785c4.19,2.523,7.449,6.066,9.78,10.621
				c2.332,4.558,3.479,9.869,3.445,15.933v51.476h-25.713V237.37c0.034-4.488-1.095-7.993-3.391-10.516
				c-2.295-2.525-5.477-3.787-9.543-3.787s-7.335,1.298-9.805,3.891C502.119,229.553,500.867,233.146,500.832,237.737z"/>
			<path d="M614.615,203.034v18.93h-14.565v36.438c0,2.384,0.569,4.058,1.708,5.021c1.139,0.965,2.742,1.446,4.811,1.446
				c0.981,0,2.024-0.096,3.129-0.289c1.104-0.192,1.936-0.358,2.498-0.499l3.89,18.561c-1.227,0.351-2.944,0.781-5.151,1.289
				c-2.209,0.508-4.873,0.849-7.993,1.025c-9.079,0.421-16.135-1.385-21.164-5.415c-5.032-4.031-7.512-10.131-7.441-18.299v-39.278
				h-10.673v-18.93h10.673v-19.349h25.713v19.349H614.615z"/>
			<path d="M647.664,230.325v19.822h-26.467v-19.822H647.664z"/>
			<path d="M705.941,203.034v18.93h-14.564v36.438c0,2.384,0.569,4.058,1.708,5.021c1.139,0.965,2.742,1.446,4.811,1.446
				c0.981,0,2.024-0.096,3.129-0.289c1.104-0.192,1.936-0.358,2.498-0.499l3.89,18.561c-1.227,0.351-2.944,0.781-5.151,1.289
				c-2.209,0.508-4.873,0.849-7.993,1.025c-9.079,0.421-16.135-1.385-21.164-5.415c-5.032-4.031-7.512-10.131-7.441-18.299v-39.278
				h-10.673v-18.93h10.673v-19.349h25.713v19.349H705.941z"/>
			<path d="M731.967,193.623c-3.609,0-6.713-1.2-9.307-3.602c-2.594-2.4-3.89-5.301-3.89-8.701c0-3.4,1.296-6.292,3.89-8.676
				c2.594-2.384,5.697-3.575,9.307-3.575c3.646,0,6.758,1.191,9.334,3.575c2.576,2.384,3.864,5.276,3.864,8.676
				c0,3.4-1.289,6.301-3.864,8.701C738.725,192.422,735.613,193.623,731.967,193.623z M719.085,283.798v-80.764h25.713v80.764
				H719.085z"/>
			<path d="M782.968,203.034l13.303,26.606l13.776-26.606h25.923l-22.557,40.382l23.398,40.382h-25.711l-14.828-26.815
				l-14.46,26.815h-26.08l23.45-40.382l-22.293-40.382H782.968z"/>
		</g>
		<g>
			<path d="M243.858,157.388c1.272,0.361,2.523,0.74,3.763,1.129c2.135-20.274,19.329-36.126,40.159-36.126
				c20.83,0,38.024,15.853,40.159,36.126c1.24-0.389,2.491-0.768,3.763-1.129c3.547-1.007,6.977-1.827,10.229-2.506
				c-3.839-26.45-26.655-46.835-54.152-46.835c-27.497,0-50.313,20.385-54.152,46.835
				C236.88,155.561,240.31,156.381,243.858,157.388z"/>
			<path d="M365.469,155.41c-8.396,0.369-51.039,3.537-77.69,29.876c-26.65-26.339-69.294-29.507-77.69-29.876l-1.872-0.082v130.998
				l1.771,0.021c17.385,0.21,31.657,3.076,42.843,6.674v-69.903l34.947,20.368l34.947-20.368v69.903
				c11.186-3.598,25.457-6.464,42.843-6.674l1.771-0.021V155.327L365.469,155.41z"/>
		</g>
	</g>
</g>
<g id="colors" style="display:none;">
	<rect x="512" style="display:inline;" width="512" height="1024"/>
	<g style="display:inline;">
		<g>
			<path style="fill:#1F6096;" d="M203.196,226.226c-7.167,0-12.804-2.089-16.911-6.267c-4.108-4.176-6.162-9.918-6.162-17.223
				c0-4.712,0.93-8.835,2.791-12.369c1.861-3.533,4.484-6.285,7.869-8.255c3.386-1.969,7.374-2.954,11.968-2.954
				c4.316,0,8.137,0.895,11.462,2.687c3.326,1.793,5.929,4.42,7.81,7.885c1.88,3.465,2.821,7.701,2.821,12.71v3.623h-30.408v0.386
				c0,2.792,0.806,5.039,2.419,6.741c1.614,1.703,3.817,2.554,6.608,2.554c1.901,0,3.553-0.401,4.959-1.204
				c1.406-0.801,2.386-1.955,2.94-3.459l13.334,0.386c-0.831,4.475-3.128,8.053-6.889,10.736S209.175,226.226,203.196,226.226z
				 M194.436,197.628h16.896c-0.019-2.336-0.806-4.251-2.36-5.746c-1.555-1.494-3.53-2.242-5.925-2.242
				c-2.415,0-4.43,0.762-6.043,2.287C195.391,193.451,194.534,195.352,194.436,197.628z"/>
			<path style="fill:#1F6096;" d="M246.819,199.35v26.014h-14.522v-45.613h13.808v8.375h0.505c1.01-2.771,2.732-4.959,5.167-6.563
				c2.435-1.604,5.335-2.405,8.7-2.405c3.207,0,5.994,0.713,8.359,2.138c2.366,1.425,4.207,3.426,5.524,5.998
				c1.317,2.574,1.965,5.574,1.946,8.998v29.072h-14.522v-26.221c0.019-2.535-0.619-4.514-1.915-5.939
				c-1.296-1.426-3.093-2.139-5.39-2.139s-4.142,0.733-5.538,2.198C247.546,194.728,246.839,196.758,246.819,199.35z"/>
			<path style="fill:#1F6096;" d="M311.081,179.751v10.691h-8.226v20.579c0,1.346,0.322,2.292,0.965,2.836
				c0.643,0.545,1.549,0.817,2.717,0.817c0.554,0,1.143-0.054,1.767-0.163c0.624-0.108,1.093-0.202,1.411-0.282l2.197,10.483
				c-0.693,0.198-1.663,0.441-2.909,0.728c-1.247,0.287-2.752,0.48-4.514,0.579c-5.127,0.238-9.113-0.782-11.952-3.058
				c-2.842-2.276-4.242-5.722-4.203-10.335v-22.183h-6.028v-10.691h6.028v-10.928h14.522v10.928H311.081z"/>
			<path style="fill:#1F6096;" d="M329.745,195.164v11.195h-14.948v-11.195H329.745z"/>
			<path style="fill:#1F6096;" d="M362.659,179.751v10.691h-8.226v20.579c0,1.346,0.322,2.292,0.965,2.836
				c0.643,0.545,1.549,0.817,2.717,0.817c0.554,0,1.143-0.054,1.767-0.163c0.624-0.108,1.093-0.202,1.411-0.282l2.197,10.483
				c-0.693,0.198-1.663,0.441-2.909,0.728c-1.247,0.287-2.752,0.48-4.514,0.579c-5.127,0.238-9.113-0.782-11.952-3.058
				c-2.842-2.276-4.242-5.722-4.203-10.335v-22.183h-6.028v-10.691h6.028v-10.928h14.522v10.928H362.659z"/>
			<path style="fill:#1F6096;" d="M377.357,174.436c-2.039,0-3.791-0.678-5.256-2.034c-1.465-1.356-2.197-2.994-2.197-4.914
				c0-1.92,0.732-3.553,2.197-4.9c1.465-1.346,3.218-2.019,5.256-2.019c2.059,0,3.817,0.673,5.271,2.019
				c1.455,1.346,2.182,2.98,2.182,4.9c0,1.92-0.728,3.558-2.182,4.914C381.174,173.758,379.416,174.436,377.357,174.436z
				 M370.082,225.364v-45.613h14.522v45.613H370.082z"/>
			<path style="fill:#1F6096;" d="M406.161,179.751l7.513,15.026l7.78-15.026h14.64l-12.74,22.807l13.214,22.807h-14.521
				l-8.375-15.145l-8.166,15.145h-14.729l13.244-22.807l-12.59-22.807H406.161z"/>
		</g>
		<g>
			<path style="fill:#1F6096;" d="M101.688,153.972c0.718,0.204,1.425,0.418,2.125,0.638c1.206-11.45,10.916-20.403,22.681-20.403
				s21.475,8.953,22.681,20.403c0.7-0.22,1.407-0.434,2.125-0.638c2.003-0.569,3.94-1.032,5.777-1.415
				c-2.168-14.938-15.054-26.451-30.583-26.451s-28.415,11.513-30.583,26.451C97.748,152.94,99.685,153.403,101.688,153.972z"/>
			<path style="fill:#1F6096;" d="M170.371,152.854c-4.742,0.208-28.825,1.998-43.877,16.873
				c-15.051-14.875-39.135-16.665-43.877-16.873l-1.057-0.046v73.983l1,0.012c9.819,0.118,17.879,1.737,24.197,3.769v-39.479
				l19.737,11.503l19.737-11.503v39.479c6.318-2.032,14.377-3.651,24.196-3.769l1-0.012v-73.983L170.371,152.854z"/>
		</g>
	</g>
	<g style="display:inline;">
		<g>
			<path style="fill:#980F30;" d="M203.196,547.653c-7.167,0-12.804-2.089-16.911-6.267c-4.108-4.176-6.162-9.918-6.162-17.223
				c0-4.712,0.93-8.835,2.791-12.369c1.861-3.533,4.484-6.285,7.869-8.255c3.386-1.969,7.374-2.954,11.968-2.954
				c4.316,0,8.137,0.895,11.462,2.687c3.326,1.793,5.929,4.42,7.81,7.885c1.88,3.465,2.821,7.701,2.821,12.71v3.623h-30.408v0.386
				c0,2.792,0.806,5.039,2.419,6.741c1.614,1.703,3.817,2.554,6.608,2.554c1.901,0,3.553-0.401,4.959-1.204
				c1.406-0.801,2.386-1.955,2.94-3.459l13.334,0.386c-0.831,4.475-3.128,8.053-6.889,10.736
				C214.045,546.312,209.175,547.653,203.196,547.653z M194.436,519.055h16.896c-0.019-2.336-0.806-4.251-2.36-5.746
				c-1.555-1.494-3.53-2.242-5.925-2.242c-2.415,0-4.43,0.762-6.043,2.287C195.391,514.878,194.534,516.779,194.436,519.055z"/>
			<path style="fill:#980F30;" d="M246.819,520.778v26.014h-14.522v-45.613h13.808v8.375h0.505c1.01-2.771,2.732-4.959,5.167-6.563
				c2.435-1.604,5.335-2.405,8.7-2.405c3.207,0,5.994,0.713,8.359,2.138c2.366,1.425,4.207,3.426,5.524,5.998
				c1.317,2.574,1.965,5.574,1.946,8.998v29.072h-14.522V520.57c0.019-2.535-0.619-4.514-1.915-5.939
				c-1.296-1.426-3.093-2.139-5.39-2.139s-4.142,0.733-5.538,2.198C247.546,516.155,246.839,518.185,246.819,520.778z"/>
			<path style="fill:#980F30;" d="M311.081,501.178v10.691h-8.226v20.579c0,1.346,0.322,2.292,0.965,2.836
				c0.643,0.545,1.549,0.817,2.717,0.817c0.554,0,1.143-0.054,1.767-0.163c0.624-0.108,1.093-0.202,1.411-0.282l2.197,10.483
				c-0.693,0.198-1.663,0.441-2.909,0.728c-1.247,0.287-2.752,0.48-4.514,0.579c-5.127,0.238-9.113-0.782-11.952-3.058
				c-2.842-2.276-4.242-5.722-4.203-10.335v-22.183h-6.028v-10.691h6.028v-10.928h14.522v10.928H311.081z"/>
			<path style="fill:#980F30;" d="M329.745,516.591v11.195h-14.948v-11.195H329.745z"/>
			<path style="fill:#980F30;" d="M362.659,501.178v10.691h-8.226v20.579c0,1.346,0.322,2.292,0.965,2.836
				c0.643,0.545,1.549,0.817,2.717,0.817c0.554,0,1.143-0.054,1.767-0.163c0.624-0.108,1.093-0.202,1.411-0.282l2.197,10.483
				c-0.693,0.198-1.663,0.441-2.909,0.728c-1.247,0.287-2.752,0.48-4.514,0.579c-5.127,0.238-9.113-0.782-11.952-3.058
				c-2.842-2.276-4.242-5.722-4.203-10.335v-22.183h-6.028v-10.691h6.028v-10.928h14.522v10.928H362.659z"/>
			<path style="fill:#980F30;" d="M377.357,495.863c-2.039,0-3.791-0.678-5.256-2.034c-1.465-1.356-2.197-2.994-2.197-4.914
				c0-1.92,0.732-3.553,2.197-4.9c1.465-1.346,3.218-2.019,5.256-2.019c2.059,0,3.817,0.673,5.271,2.019
				c1.455,1.346,2.182,2.98,2.182,4.9c0,1.92-0.728,3.559-2.182,4.914C381.174,495.185,379.416,495.863,377.357,495.863z
				 M370.082,546.792v-45.613h14.522v45.613H370.082z"/>
			<path style="fill:#980F30;" d="M406.161,501.178l7.513,15.026l7.78-15.026h14.64l-12.74,22.807l13.214,22.807h-14.521
				l-8.375-15.144l-8.166,15.144h-14.729l13.244-22.807l-12.59-22.807H406.161z"/>
		</g>
		<g>
			<path style="fill:#980F30;" d="M101.688,475.399c0.718,0.204,1.425,0.418,2.125,0.638c1.206-11.45,10.916-20.403,22.681-20.403
				s21.475,8.953,22.681,20.403c0.7-0.22,1.407-0.434,2.125-0.638c2.003-0.569,3.94-1.032,5.777-1.415
				c-2.168-14.938-15.054-26.451-30.583-26.451s-28.415,11.513-30.583,26.451C97.748,474.367,99.685,474.83,101.688,475.399z"/>
			<path style="fill:#980F30;" d="M170.371,474.282c-4.742,0.208-28.825,1.998-43.877,16.873
				c-15.051-14.875-39.135-16.665-43.877-16.873l-1.057-0.046v73.983l1,0.012c9.819,0.118,17.879,1.737,24.197,3.769v-39.479
				l19.737,11.503l19.737-11.503V552c6.318-2.032,14.377-3.651,24.196-3.769l1-0.012v-73.983L170.371,474.282z"/>
		</g>
	</g>
	<g style="display:inline;">
		<g>
			<path d="M203.196,869.08c-7.167,0-12.804-2.089-16.911-6.267c-4.108-4.176-6.162-9.918-6.162-17.223
				c0-4.712,0.93-8.835,2.791-12.369c1.861-3.533,4.484-6.285,7.869-8.255c3.386-1.969,7.374-2.954,11.968-2.954
				c4.316,0,8.137,0.895,11.462,2.687c3.326,1.792,5.929,4.42,7.81,7.885c1.88,3.465,2.821,7.701,2.821,12.71v3.623h-30.408v0.386
				c0,2.792,0.806,5.039,2.419,6.741c1.614,1.703,3.817,2.554,6.608,2.554c1.901,0,3.553-0.401,4.959-1.204
				c1.406-0.801,2.386-1.955,2.94-3.459l13.334,0.386c-0.831,4.475-3.128,8.053-6.889,10.736
				C214.045,867.739,209.175,869.08,203.196,869.08z M194.436,840.483h16.896c-0.019-2.336-0.806-4.251-2.36-5.746
				c-1.555-1.494-3.53-2.242-5.925-2.242c-2.415,0-4.43,0.762-6.043,2.287C195.391,836.306,194.534,838.206,194.436,840.483z"/>
			<path d="M246.819,842.205v26.014h-14.522v-45.613h13.808v8.375h0.505c1.01-2.771,2.732-4.959,5.167-6.563
				c2.435-1.604,5.335-2.405,8.7-2.405c3.207,0,5.994,0.713,8.359,2.138c2.366,1.425,4.207,3.426,5.524,5.998
				c1.317,2.574,1.965,5.574,1.946,8.998v29.072h-14.522v-26.221c0.019-2.535-0.619-4.514-1.915-5.939
				c-1.296-1.426-3.093-2.139-5.39-2.139s-4.142,0.733-5.538,2.198C247.546,837.583,246.839,839.612,246.819,842.205z"/>
			<path d="M311.081,822.606v10.691h-8.226v20.579c0,1.346,0.322,2.292,0.965,2.836c0.643,0.545,1.549,0.817,2.717,0.817
				c0.554,0,1.143-0.054,1.767-0.163c0.624-0.108,1.093-0.202,1.411-0.282l2.197,10.483c-0.693,0.198-1.663,0.441-2.909,0.728
				c-1.247,0.287-2.752,0.48-4.514,0.579c-5.127,0.238-9.113-0.782-11.952-3.058c-2.842-2.276-4.242-5.722-4.203-10.335v-22.183
				h-6.028v-10.691h6.028v-10.928h14.522v10.928H311.081z"/>
			<path d="M329.745,838.019v11.195h-14.948v-11.195H329.745z"/>
			<path d="M362.659,822.606v10.691h-8.226v20.579c0,1.346,0.322,2.292,0.965,2.836c0.643,0.545,1.549,0.817,2.717,0.817
				c0.554,0,1.143-0.054,1.767-0.163c0.624-0.108,1.093-0.202,1.411-0.282l2.197,10.483c-0.693,0.198-1.663,0.441-2.909,0.728
				c-1.247,0.287-2.752,0.48-4.514,0.579c-5.127,0.238-9.113-0.782-11.952-3.058c-2.842-2.276-4.242-5.722-4.203-10.335v-22.183
				h-6.028v-10.691h6.028v-10.928h14.522v10.928H362.659z"/>
			<path d="M377.357,817.29c-2.039,0-3.791-0.678-5.256-2.034c-1.465-1.356-2.197-2.994-2.197-4.914s0.732-3.553,2.197-4.9
				c1.465-1.346,3.218-2.019,5.256-2.019c2.059,0,3.817,0.673,5.271,2.019c1.455,1.346,2.182,2.98,2.182,4.9
				s-0.728,3.558-2.182,4.914C381.174,816.612,379.416,817.29,377.357,817.29z M370.082,868.219v-45.613h14.522v45.613H370.082z"/>
			<path d="M406.161,822.606l7.513,15.026l7.78-15.026h14.64l-12.74,22.807l13.214,22.807h-14.521l-8.375-15.145l-8.166,15.145
				h-14.729l13.244-22.807l-12.59-22.807H406.161z"/>
		</g>
		<g>
			<path d="M101.688,796.826c0.718,0.204,1.425,0.418,2.125,0.638c1.206-11.45,10.916-20.403,22.681-20.403
				s21.475,8.953,22.681,20.403c0.7-0.22,1.407-0.434,2.125-0.638c2.003-0.569,3.94-1.032,5.777-1.415
				c-2.168-14.938-15.054-26.451-30.583-26.451s-28.415,11.513-30.583,26.451C97.748,795.795,99.685,796.258,101.688,796.826z"/>
			<path d="M170.371,795.709c-4.742,0.208-28.825,1.998-43.877,16.873c-15.051-14.875-39.135-16.665-43.877-16.873l-1.057-0.046
				v73.983l1,0.012c9.819,0.118,17.879,1.737,24.197,3.769v-39.479l19.737,11.503l19.737-11.503v39.479
				c6.318-2.032,14.377-3.651,24.196-3.769l1-0.012v-73.983L170.371,795.709z"/>
		</g>
	</g>
	<g style="display:inline;">
		<g>
			<path style="fill:#EA756C;" d="M717.542,226.226c-7.167,0-12.804-2.089-16.912-6.267c-4.108-4.176-6.161-9.918-6.161-17.223
				c0-4.712,0.93-8.835,2.791-12.369c1.861-3.533,4.484-6.285,7.869-8.255c3.386-1.969,7.374-2.954,11.968-2.954
				c4.316,0,8.137,0.895,11.462,2.687c3.326,1.793,5.929,4.42,7.81,7.885c1.88,3.465,2.821,7.701,2.821,12.71v3.623h-30.408v0.386
				c0,2.792,0.806,5.039,2.419,6.741c1.614,1.703,3.817,2.554,6.608,2.554c1.901,0,3.553-0.401,4.959-1.204
				c1.406-0.801,2.386-1.955,2.94-3.459l13.334,0.386c-0.831,4.475-3.128,8.053-6.889,10.736
				C728.391,224.885,723.521,226.226,717.542,226.226z M708.783,197.628h16.896c-0.019-2.336-0.806-4.251-2.36-5.746
				c-1.555-1.494-3.53-2.242-5.925-2.242c-2.415,0-4.43,0.762-6.043,2.287C709.737,193.451,708.881,195.352,708.783,197.628z"/>
			<path style="fill:#EA756C;" d="M761.166,199.35v26.014h-14.522v-45.613h13.808v8.375h0.505c1.01-2.771,2.732-4.959,5.167-6.563
				c2.435-1.604,5.335-2.405,8.7-2.405c3.207,0,5.994,0.713,8.359,2.138c2.366,1.425,4.207,3.426,5.524,5.998
				c1.317,2.574,1.965,5.574,1.946,8.998v29.072h-14.522v-26.221c0.019-2.535-0.619-4.514-1.915-5.939
				c-1.296-1.426-3.093-2.139-5.39-2.139c-2.297,0-4.142,0.733-5.538,2.198C761.893,194.728,761.185,196.758,761.166,199.35z"/>
			<path style="fill:#EA756C;" d="M825.427,179.751v10.691h-8.226v20.579c0,1.346,0.322,2.292,0.965,2.836
				c0.643,0.545,1.549,0.817,2.717,0.817c0.554,0,1.143-0.054,1.767-0.163c0.624-0.108,1.093-0.202,1.411-0.282l2.197,10.483
				c-0.693,0.198-1.663,0.441-2.909,0.728c-1.247,0.287-2.752,0.48-4.514,0.579c-5.127,0.238-9.113-0.782-11.953-3.058
				c-2.842-2.276-4.242-5.722-4.203-10.335v-22.183h-6.028v-10.691h6.028v-10.928h14.522v10.928H825.427z"/>
			<path style="fill:#EA756C;" d="M844.092,195.164v11.195h-14.948v-11.195H844.092z"/>
			<path style="fill:#EA756C;" d="M877.005,179.751v10.691h-8.226v20.579c0,1.346,0.322,2.292,0.965,2.836
				c0.643,0.545,1.549,0.817,2.717,0.817c0.554,0,1.143-0.054,1.767-0.163c0.624-0.108,1.093-0.202,1.411-0.282l2.197,10.483
				c-0.693,0.198-1.663,0.441-2.909,0.728c-1.247,0.287-2.752,0.48-4.514,0.579c-5.127,0.238-9.113-0.782-11.952-3.058
				c-2.842-2.276-4.242-5.722-4.203-10.335v-22.183h-6.028v-10.691h6.028v-10.928h14.522v10.928H877.005z"/>
			<path style="fill:#EA756C;" d="M891.703,174.436c-2.039,0-3.791-0.678-5.256-2.034c-1.465-1.356-2.197-2.994-2.197-4.914
				c0-1.92,0.732-3.553,2.197-4.9c1.465-1.346,3.218-2.019,5.256-2.019c2.059,0,3.817,0.673,5.271,2.019
				c1.455,1.346,2.182,2.98,2.182,4.9c0,1.92-0.728,3.558-2.182,4.914C895.52,173.758,893.762,174.436,891.703,174.436z
				 M884.428,225.364v-45.613h14.522v45.613H884.428z"/>
			<path style="fill:#EA756C;" d="M920.507,179.751l7.513,15.026l7.781-15.026h14.64l-12.74,22.807l13.214,22.807h-14.521
				l-8.375-15.145l-8.166,15.145h-14.729l13.244-22.807l-12.591-22.807H920.507z"/>
		</g>
		<g>
			<path style="fill:#EA756C;" d="M616.035,153.972c0.718,0.204,1.425,0.418,2.125,0.638c1.206-11.45,10.916-20.403,22.681-20.403
				c11.764,0,21.475,8.953,22.681,20.403c0.7-0.22,1.407-0.434,2.125-0.638c2.003-0.569,3.94-1.032,5.777-1.415
				c-2.168-14.938-15.054-26.451-30.583-26.451s-28.415,11.513-30.583,26.451C612.094,152.94,614.031,153.403,616.035,153.972z"/>
			<path style="fill:#EA756C;" d="M684.717,152.854c-4.742,0.208-28.825,1.998-43.877,16.873
				c-15.051-14.875-39.135-16.665-43.877-16.873l-1.057-0.046v73.983l1,0.012c9.819,0.118,17.879,1.737,24.197,3.769v-39.479
				l19.737,11.503l19.737-11.503v39.479c6.318-2.032,14.378-3.651,24.196-3.769l1-0.012v-73.983L684.717,152.854z"/>
		</g>
	</g>
	<g style="display:inline;">
		<g>
			<path style="fill:#EBA64C;" d="M717.542,547.653c-7.167,0-12.804-2.089-16.912-6.267c-4.108-4.176-6.161-9.918-6.161-17.223
				c0-4.712,0.93-8.835,2.791-12.369c1.861-3.533,4.484-6.285,7.869-8.255c3.386-1.969,7.374-2.954,11.968-2.954
				c4.316,0,8.137,0.895,11.462,2.687c3.326,1.793,5.929,4.42,7.81,7.885c1.88,3.465,2.821,7.701,2.821,12.71v3.623h-30.408v0.386
				c0,2.792,0.806,5.039,2.419,6.741c1.614,1.703,3.817,2.554,6.608,2.554c1.901,0,3.553-0.401,4.959-1.204
				c1.406-0.801,2.386-1.955,2.94-3.459l13.334,0.386c-0.831,4.475-3.128,8.053-6.889,10.736
				C728.391,546.312,723.521,547.653,717.542,547.653z M708.783,519.055h16.896c-0.019-2.336-0.806-4.251-2.36-5.746
				c-1.555-1.494-3.53-2.242-5.925-2.242c-2.415,0-4.43,0.762-6.043,2.287C709.737,514.878,708.881,516.779,708.783,519.055z"/>
			<path style="fill:#EBA64C;" d="M761.166,520.778v26.014h-14.522v-45.613h13.808v8.375h0.505c1.01-2.771,2.732-4.959,5.167-6.563
				c2.435-1.604,5.335-2.405,8.7-2.405c3.207,0,5.994,0.713,8.359,2.138c2.366,1.425,4.207,3.426,5.524,5.998
				c1.317,2.574,1.965,5.574,1.946,8.998v29.072h-14.522V520.57c0.019-2.535-0.619-4.514-1.915-5.939
				c-1.296-1.426-3.093-2.139-5.39-2.139c-2.297,0-4.142,0.733-5.538,2.198C761.893,516.155,761.185,518.185,761.166,520.778z"/>
			<path style="fill:#EBA64C;" d="M825.427,501.178v10.691h-8.226v20.579c0,1.346,0.322,2.292,0.965,2.836
				c0.643,0.545,1.549,0.817,2.717,0.817c0.554,0,1.143-0.054,1.767-0.163c0.624-0.108,1.093-0.202,1.411-0.282l2.197,10.483
				c-0.693,0.198-1.663,0.441-2.909,0.728c-1.247,0.287-2.752,0.48-4.514,0.579c-5.127,0.238-9.113-0.782-11.953-3.058
				c-2.842-2.276-4.242-5.722-4.203-10.335v-22.183h-6.028v-10.691h6.028v-10.928h14.522v10.928H825.427z"/>
			<path style="fill:#EBA64C;" d="M844.092,516.591v11.195h-14.948v-11.195H844.092z"/>
			<path style="fill:#EBA64C;" d="M877.005,501.178v10.691h-8.226v20.579c0,1.346,0.322,2.292,0.965,2.836
				c0.643,0.545,1.549,0.817,2.717,0.817c0.554,0,1.143-0.054,1.767-0.163c0.624-0.108,1.093-0.202,1.411-0.282l2.197,10.483
				c-0.693,0.198-1.663,0.441-2.909,0.728c-1.247,0.287-2.752,0.48-4.514,0.579c-5.127,0.238-9.113-0.782-11.952-3.058
				c-2.842-2.276-4.242-5.722-4.203-10.335v-22.183h-6.028v-10.691h6.028v-10.928h14.522v10.928H877.005z"/>
			<path style="fill:#EBA64C;" d="M891.703,495.863c-2.039,0-3.791-0.678-5.256-2.034c-1.465-1.356-2.197-2.994-2.197-4.914
				c0-1.92,0.732-3.553,2.197-4.9s3.218-2.019,5.256-2.019c2.059,0,3.817,0.673,5.271,2.019c1.455,1.346,2.182,2.98,2.182,4.9
				c0,1.92-0.728,3.559-2.182,4.914C895.52,495.185,893.762,495.863,891.703,495.863z M884.428,546.792v-45.613h14.522v45.613
				H884.428z"/>
			<path style="fill:#EBA64C;" d="M920.507,501.178l7.513,15.026l7.781-15.026h14.64l-12.74,22.807l13.214,22.807h-14.521
				l-8.375-15.144l-8.166,15.144h-14.729l13.244-22.807l-12.591-22.807H920.507z"/>
		</g>
		<g>
			<path style="fill:#EBA64C;" d="M616.035,475.399c0.718,0.204,1.425,0.418,2.125,0.638c1.206-11.45,10.916-20.403,22.681-20.403
				c11.764,0,21.475,8.953,22.681,20.403c0.7-0.22,1.407-0.434,2.125-0.638c2.003-0.569,3.94-1.032,5.777-1.415
				c-2.168-14.938-15.054-26.451-30.583-26.451s-28.415,11.513-30.583,26.451C612.094,474.367,614.031,474.83,616.035,475.399z"/>
			<path style="fill:#EBA64C;" d="M684.717,474.282c-4.742,0.208-28.825,1.998-43.877,16.873
				c-15.051-14.875-39.135-16.665-43.877-16.873l-1.057-0.046v73.983l1,0.012c9.819,0.118,17.879,1.737,24.197,3.769v-39.479
				l19.737,11.503l19.737-11.503V552c6.318-2.032,14.378-3.651,24.196-3.769l1-0.012v-73.983L684.717,474.282z"/>
		</g>
	</g>
	<g style="display:inline;">
		<g>
			<path style="fill:#FFFFFF;" d="M717.542,869.08c-7.167,0-12.804-2.089-16.912-6.267c-4.108-4.176-6.161-9.918-6.161-17.223
				c0-4.712,0.93-8.835,2.791-12.369c1.861-3.533,4.484-6.285,7.869-8.255c3.386-1.969,7.374-2.954,11.968-2.954
				c4.316,0,8.137,0.895,11.462,2.687c3.326,1.792,5.929,4.42,7.81,7.885c1.88,3.465,2.821,7.701,2.821,12.71v3.623h-30.408v0.386
				c0,2.792,0.806,5.039,2.419,6.741c1.614,1.703,3.817,2.554,6.608,2.554c1.901,0,3.553-0.401,4.959-1.204
				c1.406-0.801,2.386-1.955,2.94-3.459l13.334,0.386c-0.831,4.475-3.128,8.053-6.889,10.736
				C728.391,867.739,723.521,869.08,717.542,869.08z M708.783,840.483h16.896c-0.019-2.336-0.806-4.251-2.36-5.746
				c-1.555-1.494-3.53-2.242-5.925-2.242c-2.415,0-4.43,0.762-6.043,2.287C709.737,836.306,708.881,838.206,708.783,840.483z"/>
			<path style="fill:#FFFFFF;" d="M761.166,842.205v26.014h-14.522v-45.613h13.808v8.375h0.505c1.01-2.771,2.732-4.959,5.167-6.563
				c2.435-1.604,5.335-2.405,8.7-2.405c3.207,0,5.994,0.713,8.359,2.138c2.366,1.425,4.207,3.426,5.524,5.998
				c1.317,2.574,1.965,5.574,1.946,8.998v29.072h-14.522v-26.221c0.019-2.535-0.619-4.514-1.915-5.939
				c-1.296-1.426-3.093-2.139-5.39-2.139c-2.297,0-4.142,0.733-5.538,2.198C761.893,837.583,761.185,839.612,761.166,842.205z"/>
			<path style="fill:#FFFFFF;" d="M825.427,822.606v10.691h-8.226v20.579c0,1.346,0.322,2.292,0.965,2.836
				c0.643,0.545,1.549,0.817,2.717,0.817c0.554,0,1.143-0.054,1.767-0.163c0.624-0.108,1.093-0.202,1.411-0.282l2.197,10.483
				c-0.693,0.198-1.663,0.441-2.909,0.728c-1.247,0.287-2.752,0.48-4.514,0.579c-5.127,0.238-9.113-0.782-11.953-3.058
				c-2.842-2.276-4.242-5.722-4.203-10.335v-22.183h-6.028v-10.691h6.028v-10.928h14.522v10.928H825.427z"/>
			<path style="fill:#FFFFFF;" d="M844.092,838.019v11.195h-14.948v-11.195H844.092z"/>
			<path style="fill:#FFFFFF;" d="M877.005,822.606v10.691h-8.226v20.579c0,1.346,0.322,2.292,0.965,2.836
				c0.643,0.545,1.549,0.817,2.717,0.817c0.554,0,1.143-0.054,1.767-0.163c0.624-0.108,1.093-0.202,1.411-0.282l2.197,10.483
				c-0.693,0.198-1.663,0.441-2.909,0.728c-1.247,0.287-2.752,0.48-4.514,0.579c-5.127,0.238-9.113-0.782-11.952-3.058
				c-2.842-2.276-4.242-5.722-4.203-10.335v-22.183h-6.028v-10.691h6.028v-10.928h14.522v10.928H877.005z"/>
			<path style="fill:#FFFFFF;" d="M891.703,817.29c-2.039,0-3.791-0.678-5.256-2.034c-1.465-1.356-2.197-2.994-2.197-4.914
				s0.732-3.553,2.197-4.9c1.465-1.346,3.218-2.019,5.256-2.019c2.059,0,3.817,0.673,5.271,2.019c1.455,1.346,2.182,2.98,2.182,4.9
				s-0.728,3.558-2.182,4.914C895.52,816.612,893.762,817.29,891.703,817.29z M884.428,868.219v-45.613h14.522v45.613H884.428z"/>
			<path style="fill:#FFFFFF;" d="M920.507,822.606l7.513,15.026l7.781-15.026h14.64l-12.74,22.807l13.214,22.807h-14.521
				l-8.375-15.145l-8.166,15.145h-14.729l13.244-22.807l-12.591-22.807H920.507z"/>
		</g>
		<g>
			<path style="fill:#FFFFFF;" d="M616.035,796.826c0.718,0.204,1.425,0.418,2.125,0.638c1.206-11.45,10.916-20.403,22.681-20.403
				c11.764,0,21.475,8.953,22.681,20.403c0.7-0.22,1.407-0.434,2.125-0.638c2.003-0.569,3.94-1.032,5.777-1.415
				c-2.168-14.938-15.054-26.451-30.583-26.451s-28.415,11.513-30.583,26.451C612.094,795.795,614.031,796.258,616.035,796.826z"/>
			<path style="fill:#FFFFFF;" d="M684.717,795.709c-4.742,0.208-28.825,1.998-43.877,16.873
				c-15.051-14.875-39.135-16.665-43.877-16.873l-1.057-0.046v73.983l1,0.012c9.819,0.118,17.879,1.737,24.197,3.769v-39.479
				l19.737,11.503l19.737-11.503v39.479c6.318-2.032,14.378-3.651,24.196-3.769l1-0.012v-73.983L684.717,795.709z"/>
		</g>
	</g>
</g>
<g id="final_logo" style="display:none;">
	<g>
		<g style="display:inline;">
			<path style="fill:#1F6096;" d="M388.037,598.252c-15.902,0-28.409-4.634-37.524-13.905c-9.114-9.266-13.671-22.006-13.671-38.214
				c0-10.455,2.063-19.603,6.192-27.445c4.129-7.839,9.95-13.945,17.461-18.317c7.513-4.369,16.362-6.555,26.554-6.555
				c9.576,0,18.054,1.986,25.433,5.961c7.379,3.977,13.155,9.807,17.329,17.495c4.172,7.687,6.26,17.087,6.26,28.201v8.038h-67.471
				v0.856c0,6.195,1.789,11.18,5.368,14.958c3.581,3.778,8.469,5.667,14.661,5.667c4.217,0,7.884-0.89,11.003-2.67
				c3.119-1.778,5.293-4.337,6.523-7.676l29.585,0.856c-1.844,9.93-6.94,17.868-15.286,23.821S401.303,598.252,388.037,598.252z
				 M368.601,534.799h37.49c-0.043-5.182-1.789-9.431-5.237-12.75c-3.45-3.316-7.832-4.974-13.146-4.974
				c-5.359,0-9.83,1.69-13.409,5.073C370.719,525.531,368.819,529.748,368.601,534.799z"/>
			<path style="fill:#1F6096;" d="M484.83,538.62v57.72h-32.221V495.132h30.638v18.582h1.121c2.24-6.149,6.061-11.003,11.465-14.561
				c5.402-3.558,11.837-5.336,19.304-5.336c7.116,0,13.3,1.581,18.548,4.743c5.25,3.162,9.334,7.601,12.256,13.309
				c2.922,5.712,4.36,12.367,4.317,19.966v64.506h-32.221v-58.18c0.043-5.624-1.373-10.016-4.249-13.178
				c-2.877-3.164-6.863-4.745-11.959-4.745c-5.096,0-9.191,1.626-12.287,4.876C486.443,528.364,484.873,532.867,484.83,538.62z"/>
			<path style="fill:#1F6096;" d="M627.414,495.132v23.721h-18.251v45.662c0,2.987,0.714,5.085,2.14,6.292
				c1.427,1.209,3.436,1.812,6.029,1.812c1.23,0,2.537-0.12,3.921-0.362c1.384-0.24,2.426-0.448,3.13-0.625l4.874,23.259
				c-1.538,0.439-3.69,0.979-6.455,1.615c-2.768,0.636-6.106,1.065-10.016,1.284c-11.377,0.528-20.219-1.735-26.52-6.786
				c-6.306-5.051-9.413-12.695-9.325-22.93v-49.22h-13.375v-23.721h13.375v-24.246h32.221v24.246H627.414z"/>
			<path style="fill:#1F6096;" d="M668.828,529.331v24.84h-33.166v-24.84H668.828z"/>
			<path style="fill:#1F6096;" d="M741.856,495.132v23.721h-18.251v45.662c0,2.987,0.713,5.085,2.14,6.292
				c1.427,1.209,3.436,1.812,6.029,1.812c1.23,0,2.537-0.12,3.921-0.362c1.384-0.24,2.426-0.448,3.13-0.625l4.874,23.259
				c-1.538,0.439-3.69,0.979-6.455,1.615c-2.768,0.636-6.106,1.065-10.016,1.284c-11.377,0.528-20.219-1.735-26.52-6.786
				c-6.306-5.051-9.413-12.695-9.325-22.93v-49.22h-13.375v-23.721h13.375v-24.246h32.221v24.246H741.856z"/>
			<path style="fill:#1F6096;" d="M774.47,483.339c-4.523,0-8.412-1.504-11.662-4.514c-3.25-3.008-4.874-6.643-4.874-10.904
				c0-4.26,1.624-7.884,4.874-10.872s7.139-4.48,11.662-4.48c4.568,0,8.469,1.493,11.696,4.48c3.228,2.987,4.842,6.611,4.842,10.872
				c0,4.26-1.615,7.896-4.842,10.904C782.938,481.835,779.038,483.339,774.47,483.339z M758.327,596.34V495.132h32.221V596.34
				H758.327z"/>
			<path style="fill:#1F6096;" d="M838.38,495.132l16.67,33.34l17.264-33.34h32.484l-28.267,50.604l29.32,50.604h-32.219
				l-18.582-33.603l-18.12,33.603h-32.681l29.386-50.604l-27.936-50.604H838.38z"/>
		</g>
		<g style="display:inline;">
			<path style="fill:#1F6096;" d="M162.81,437.933c1.594,0.452,3.162,0.927,4.715,1.415c2.675-25.405,24.221-45.271,50.324-45.271
				s47.649,19.866,50.324,45.271c1.553-0.488,3.122-0.962,4.716-1.415c4.445-1.262,8.743-2.289,12.818-3.14
				c-4.81-33.145-33.402-58.69-67.858-58.69s-63.048,25.545-67.858,58.69C154.066,435.644,158.364,436.671,162.81,437.933z"/>
			<path style="fill:#1F6096;" d="M315.203,435.454c-10.521,0.462-63.958,4.433-97.355,37.439
				c-33.396-33.006-86.834-36.976-97.355-37.439l-2.345-0.103v164.156l2.219,0.027c21.786,0.263,39.67,3.854,53.688,8.363V520.3
				l43.793,25.524l43.793-25.524v87.596c14.017-4.509,31.901-8.101,53.687-8.363l2.219-0.027V435.35L315.203,435.454z"/>
		</g>
	</g>
	<g>
		<g style="display:inline;">
			<path d="M388.037,598.252c-15.902,0-28.409-4.634-37.524-13.905c-9.114-9.266-13.671-22.006-13.671-38.214
				c0-10.455,2.063-19.603,6.192-27.445c4.129-7.839,9.95-13.945,17.461-18.317c7.513-4.369,16.362-6.555,26.554-6.555
				c9.576,0,18.054,1.986,25.433,5.961c7.379,3.977,13.155,9.807,17.329,17.495c4.172,7.687,6.26,17.087,6.26,28.201v8.038h-67.471
				v0.856c0,6.195,1.789,11.18,5.368,14.958c3.581,3.778,8.469,5.667,14.661,5.667c4.217,0,7.884-0.89,11.003-2.67
				c3.119-1.778,5.293-4.337,6.523-7.676l29.585,0.856c-1.844,9.93-6.94,17.868-15.286,23.821S401.303,598.252,388.037,598.252z
				 M368.601,534.799h37.49c-0.043-5.182-1.789-9.431-5.237-12.75c-3.45-3.316-7.832-4.974-13.146-4.974
				c-5.359,0-9.83,1.69-13.409,5.073C370.719,525.531,368.819,529.748,368.601,534.799z"/>
			<path d="M484.83,538.62v57.72h-32.221V495.132h30.638v18.582h1.121c2.24-6.149,6.061-11.003,11.465-14.561
				c5.402-3.558,11.837-5.336,19.304-5.336c7.116,0,13.3,1.581,18.548,4.743c5.25,3.162,9.334,7.601,12.256,13.309
				c2.922,5.712,4.36,12.367,4.317,19.966v64.506h-32.221v-58.18c0.043-5.624-1.373-10.016-4.249-13.178
				c-2.877-3.164-6.863-4.745-11.959-4.745c-5.096,0-9.191,1.626-12.287,4.876C486.443,528.364,484.873,532.867,484.83,538.62z"/>
			<path d="M627.414,495.132v23.721h-18.251v45.662c0,2.987,0.714,5.085,2.14,6.292c1.427,1.209,3.436,1.812,6.029,1.812
				c1.23,0,2.537-0.12,3.921-0.362c1.384-0.24,2.426-0.448,3.13-0.625l4.874,23.259c-1.538,0.439-3.69,0.979-6.455,1.615
				c-2.768,0.636-6.106,1.065-10.016,1.284c-11.377,0.528-20.219-1.735-26.52-6.786c-6.306-5.051-9.413-12.695-9.325-22.93v-49.22
				h-13.375v-23.721h13.375v-24.246h32.221v24.246H627.414z"/>
			<path d="M668.828,529.331v24.84h-33.166v-24.84H668.828z"/>
			<path d="M741.856,495.132v23.721h-18.251v45.662c0,2.987,0.713,5.085,2.14,6.292c1.427,1.209,3.436,1.812,6.029,1.812
				c1.23,0,2.537-0.12,3.921-0.362c1.384-0.24,2.426-0.448,3.13-0.625l4.874,23.259c-1.538,0.439-3.69,0.979-6.455,1.615
				c-2.768,0.636-6.106,1.065-10.016,1.284c-11.377,0.528-20.219-1.735-26.52-6.786c-6.306-5.051-9.413-12.695-9.325-22.93v-49.22
				h-13.375v-23.721h13.375v-24.246h32.221v24.246H741.856z"/>
			<path d="M774.47,483.339c-4.523,0-8.412-1.504-11.662-4.514c-3.25-3.008-4.874-6.643-4.874-10.904
				c0-4.26,1.624-7.884,4.874-10.872s7.139-4.48,11.662-4.48c4.568,0,8.469,1.493,11.696,4.48c3.228,2.987,4.842,6.611,4.842,10.872
				c0,4.26-1.615,7.896-4.842,10.904C782.938,481.835,779.038,483.339,774.47,483.339z M758.327,596.34V495.132h32.221V596.34
				H758.327z"/>
			<path d="M838.38,495.132l16.67,33.34l17.264-33.34h32.484l-28.267,50.604l29.32,50.604h-32.219l-18.582-33.603l-18.12,33.603
				h-32.681l29.386-50.604l-27.936-50.604H838.38z"/>
		</g>
		<g style="display:inline;">
			<path d="M162.81,437.933c1.594,0.452,3.162,0.927,4.715,1.415c2.675-25.405,24.221-45.271,50.324-45.271
				s47.649,19.866,50.324,45.271c1.553-0.488,3.122-0.962,4.716-1.415c4.445-1.262,8.743-2.289,12.818-3.14
				c-4.81-33.145-33.402-58.69-67.858-58.69s-63.048,25.545-67.858,58.69C154.066,435.644,158.364,436.671,162.81,437.933z"/>
			<path d="M315.203,435.454c-10.521,0.462-63.958,4.433-97.355,37.439c-33.396-33.006-86.834-36.976-97.355-37.439l-2.345-0.103
				v164.156l2.219,0.027c21.786,0.263,39.67,3.854,53.688,8.363V520.3l43.793,25.524l43.793-25.524v87.596
				c14.017-4.509,31.901-8.101,53.687-8.363l2.219-0.027V435.35L315.203,435.454z"/>
		</g>
	</g>
	<g style="display:inline;">
		<g>
			<path style="fill:#980F30;" d="M388.037,598.252c-15.902,0-28.409-4.634-37.524-13.905c-9.114-9.266-13.671-22.006-13.671-38.214
				c0-10.455,2.063-19.603,6.192-27.445c4.129-7.839,9.95-13.945,17.461-18.317c7.513-4.369,16.362-6.555,26.554-6.555
				c9.576,0,18.054,1.986,25.433,5.961c7.379,3.977,13.155,9.807,17.329,17.495c4.172,7.687,6.26,17.087,6.26,28.201v8.038h-67.471
				v0.856c0,6.195,1.789,11.18,5.368,14.958c3.581,3.778,8.469,5.667,14.661,5.667c4.217,0,7.884-0.89,11.003-2.67
				c3.119-1.778,5.293-4.337,6.523-7.676l29.585,0.856c-1.844,9.93-6.94,17.868-15.286,23.821S401.303,598.252,388.037,598.252z
				 M368.601,534.799h37.49c-0.043-5.182-1.789-9.431-5.237-12.75c-3.45-3.316-7.832-4.974-13.146-4.974
				c-5.359,0-9.83,1.69-13.409,5.073C370.719,525.531,368.819,529.748,368.601,534.799z"/>
			<path style="fill:#980F30;" d="M484.83,538.62v57.72h-32.221V495.132h30.638v18.582h1.121c2.24-6.149,6.061-11.003,11.465-14.561
				c5.402-3.558,11.837-5.336,19.304-5.336c7.116,0,13.3,1.581,18.548,4.743c5.25,3.162,9.334,7.601,12.256,13.309
				c2.922,5.712,4.36,12.367,4.317,19.966v64.506h-32.221v-58.18c0.043-5.624-1.373-10.016-4.249-13.178
				c-2.877-3.164-6.863-4.745-11.959-4.745c-5.096,0-9.191,1.626-12.287,4.876C486.443,528.364,484.873,532.867,484.83,538.62z"/>
			<path style="fill:#980F30;" d="M627.414,495.132v23.721h-18.251v45.662c0,2.987,0.714,5.085,2.14,6.292
				c1.427,1.209,3.436,1.812,6.029,1.812c1.23,0,2.537-0.12,3.921-0.362c1.384-0.24,2.426-0.448,3.13-0.625l4.874,23.259
				c-1.538,0.439-3.69,0.979-6.455,1.615c-2.768,0.636-6.106,1.065-10.016,1.284c-11.377,0.528-20.219-1.735-26.52-6.786
				c-6.306-5.051-9.413-12.695-9.325-22.93v-49.22h-13.375v-23.721h13.375v-24.246h32.221v24.246H627.414z"/>
			<path style="fill:#980F30;" d="M668.828,529.331v24.84h-33.166v-24.84H668.828z"/>
			<path style="fill:#980F30;" d="M741.856,495.132v23.721h-18.251v45.662c0,2.987,0.713,5.085,2.14,6.292
				c1.427,1.209,3.436,1.812,6.029,1.812c1.23,0,2.537-0.12,3.921-0.362c1.384-0.24,2.426-0.448,3.13-0.625l4.874,23.259
				c-1.538,0.439-3.69,0.979-6.455,1.615c-2.768,0.636-6.106,1.065-10.016,1.284c-11.377,0.528-20.219-1.735-26.52-6.786
				c-6.306-5.051-9.413-12.695-9.325-22.93v-49.22h-13.375v-23.721h13.375v-24.246h32.221v24.246H741.856z"/>
			<path style="fill:#980F30;" d="M774.47,483.339c-4.523,0-8.412-1.504-11.662-4.514c-3.25-3.008-4.874-6.643-4.874-10.904
				c0-4.26,1.624-7.884,4.874-10.872s7.139-4.48,11.662-4.48c4.568,0,8.469,1.493,11.696,4.48c3.228,2.987,4.842,6.611,4.842,10.872
				c0,4.26-1.615,7.896-4.842,10.904C782.938,481.835,779.038,483.339,774.47,483.339z M758.327,596.34V495.132h32.221V596.34
				H758.327z"/>
			<path style="fill:#980F30;" d="M838.38,495.132l16.67,33.34l17.264-33.34h32.484l-28.267,50.604l29.32,50.604h-32.219
				l-18.582-33.603l-18.12,33.603h-32.681l29.386-50.604l-27.936-50.604H838.38z"/>
		</g>
		<g>
			<path style="fill:#980F30;" d="M162.81,437.933c1.594,0.452,3.162,0.927,4.715,1.415c2.675-25.405,24.221-45.271,50.324-45.271
				s47.649,19.866,50.324,45.271c1.553-0.488,3.122-0.962,4.716-1.415c4.445-1.262,8.743-2.289,12.818-3.14
				c-4.81-33.145-33.402-58.69-67.858-58.69s-63.048,25.545-67.858,58.69C154.066,435.644,158.364,436.671,162.81,437.933z"/>
			<path style="fill:#980F30;" d="M315.203,435.454c-10.521,0.462-63.958,4.433-97.355,37.439
				c-33.396-33.006-86.834-36.976-97.355-37.439l-2.345-0.103v164.156l2.219,0.027c21.786,0.263,39.67,3.854,53.688,8.363V520.3
				l43.793,25.524l43.793-25.524v87.596c14.017-4.509,31.901-8.101,53.687-8.363l2.219-0.027V435.35L315.203,435.454z"/>
		</g>
	</g>
</g>
<g id="icon">
	<circle style="fill:#1F6096;" cx="512" cy="512" r="358.106"/>
	<g>
		<path style="fill:#FFFFFF;" d="M426.811,428.316c2.467,0.7,4.894,1.435,7.298,2.19c4.141-39.322,37.489-70.069,77.891-70.069
			s73.75,30.748,77.891,70.069c2.404-0.755,4.832-1.49,7.299-2.19c6.88-1.953,13.532-3.543,19.84-4.86
			c-7.445-51.3-51.699-90.839-105.03-90.839s-97.585,39.539-105.03,90.839C413.278,424.773,419.931,426.363,426.811,428.316z"/>
		<path style="fill:#FFFFFF;" d="M662.684,424.478C646.4,425.194,563.69,431.339,512,482.425
			c-51.69-51.086-134.4-57.231-150.684-57.947l-3.63-0.16v254.078l3.435,0.042c33.72,0.406,61.401,5.966,83.097,12.945V555.802
			L512,595.307l67.782-39.505v135.58c21.696-6.979,49.376-12.538,83.096-12.944l3.435-0.042V424.319L662.684,424.478z"/>
	</g>
	<g>
	</g>
	<g>
	</g>
	<g>
	</g>
	<g>
	</g>
	<g>
	</g>
	<g>
	</g>
</g>
</svg>
